<svg width="1386" height="373" viewBox="0 0 1386 373" fill="none" xmlns="http://www.w3.org/2000/svg">
<path d="M520.969 151.875C520.969 157.594 520.031 162.938 518.156 167.906C516.281 172.875 513.703 177.422 510.422 181.547C507.141 185.578 503.297 189.188 498.891 192.375C494.578 195.562 489.891 198.234 484.828 200.391C479.859 202.547 474.703 204.188 469.359 205.312C464.016 206.344 458.766 206.859 453.609 206.859C328.784 190.117 285.488 207.28 232 261.5C357.579 122.659 388.287 62.6456 334.5 4.35938H443.344C448.125 4.35938 453.141 4.73438 458.391 5.48438C463.641 6.14062 468.75 7.21875 473.719 8.71875C478.781 10.2188 483.562 12.1875 488.062 14.625C492.656 17.0625 496.641 20.0625 500.016 23.625C503.484 27.0938 506.203 31.125 508.172 35.7188C510.234 40.3125 511.266 45.5625 511.266 51.4688C511.266 57.0938 510.141 62.2031 507.891 66.7969C505.641 71.3906 502.594 75.5156 498.75 79.1719C495 82.7344 490.641 85.9219 485.672 88.7344C480.797 91.4531 475.641 93.8438 470.203 95.9062C477.047 97.7812 483.516 100.266 489.609 103.359C495.797 106.453 501.188 110.25 505.781 114.75C510.469 119.25 514.172 124.594 516.891 130.781C519.609 136.875 520.969 143.906 520.969 151.875ZM454.594 56.3906C454.594 44.9531 451.547 36.6094 445.453 31.3594C439.453 26.1094 430.875 23.4844 419.719 23.4844H390.328V89.1562H414.938C420 89.1562 424.922 88.5469 429.703 87.3281C434.484 86.0156 438.703 84.0469 442.359 81.4219C446.109 78.7031 449.062 75.2812 451.219 71.1562C453.469 67.0312 454.594 62.1094 454.594 56.3906ZM464.438 148.359C464.438 142.828 463.734 137.672 462.328 132.891C460.922 128.016 458.766 123.844 455.859 120.375C452.953 116.812 449.297 114.047 444.891 112.078C440.578 110.016 435.469 108.984 429.562 108.984H390.328V187.172H424.641C430.359 187.172 435.656 186.234 440.531 184.359C445.406 182.484 449.625 179.859 453.188 176.484C456.75 173.109 459.516 169.031 461.484 164.25C463.453 159.469 464.438 154.172 464.438 148.359Z" fill="black"/>
<path d="M747.234 109.969V112.641C747.047 120.516 746.203 128.672 744.703 137.109C743.297 145.547 741.281 153.984 738.656 162.422C736.031 170.859 732.891 179.203 729.234 187.453C725.578 195.703 721.453 203.578 716.859 211.078C712.359 218.672 707.484 225.75 702.234 232.312C696.984 238.969 691.453 244.828 685.641 249.891L664.688 237.797C667.969 232.266 670.922 226.219 673.547 219.656C676.266 213.188 678.703 206.391 680.859 199.266C683.016 192.141 684.844 184.828 686.344 177.328C687.938 169.828 689.25 162.375 690.281 154.969C691.312 147.562 692.062 140.297 692.531 133.172C693.094 125.953 693.375 119.109 693.375 112.641C693.375 107.578 693.328 101.859 693.234 95.4844C693.234 89.0156 692.859 82.4531 692.109 75.7969C691.453 69.1406 690.328 62.6719 688.734 56.3906C687.141 50.0156 684.75 44.3438 681.562 39.375C678.469 34.4062 674.438 30.4219 669.469 27.4219C664.594 24.4219 658.5 22.9219 651.188 22.9219C644.719 22.9219 639.141 24.0469 634.453 26.2969C629.859 28.4531 625.922 31.4062 622.641 35.1562C619.453 38.8125 616.875 43.0781 614.906 47.9531C613.031 52.8281 611.531 57.9844 610.406 63.4219C609.375 68.7656 608.672 74.2031 608.297 79.7344C608.016 85.1719 607.875 90.3281 607.875 95.2031V134.438H668.484V157.641H607.875V206.859H552.047V103.922C552.047 89.2031 554.391 75.5156 559.078 62.8594C563.766 50.2031 570.375 39.2344 578.906 29.9531C587.531 20.5781 597.844 13.2656 609.844 8.01562C621.938 2.67188 635.391 0 650.203 0C660.234 0 669.609 1.45312 678.328 4.35938C687.141 7.17188 695.156 11.1094 702.375 16.1719C709.594 21.1406 716.016 27.0938 721.641 34.0312C727.359 40.875 732.094 48.375 735.844 56.5312C739.688 64.6875 742.594 73.3125 744.562 82.4062C746.531 91.5 747.422 100.688 747.234 109.969Z" fill="black"/>
<path d="M938.766 206.859H769.031V180.984H768.891L874.781 30.2344H769.031V4.35938H938.766V30.2344L832.875 180.984H938.766V206.859Z" fill="black"/>
<path d="M1167.14 109.969V112.641C1166.95 120.516 1166.11 128.672 1164.61 137.109C1163.2 145.547 1161.19 153.984 1158.56 162.422C1155.94 170.859 1152.8 179.203 1149.14 187.453C1145.48 195.703 1141.36 203.578 1136.77 211.078C1132.27 218.672 1127.39 225.75 1122.14 232.312C1116.89 238.969 1111.36 244.828 1105.55 249.891L1084.59 237.797C1087.88 232.266 1090.83 226.219 1093.45 219.656C1096.17 213.188 1098.61 206.391 1100.77 199.266C1102.92 192.141 1104.75 184.828 1106.25 177.328C1107.84 169.828 1109.16 162.375 1110.19 154.969C1111.22 147.562 1111.97 140.297 1112.44 133.172C1113 125.953 1113.28 119.109 1113.28 112.641C1113.28 107.578 1113.23 101.859 1113.14 95.4844C1113.14 89.0156 1112.77 82.4531 1112.02 75.7969C1111.36 69.1406 1110.23 62.6719 1108.64 56.3906C1107.05 50.0156 1104.66 44.3438 1101.47 39.375C1098.38 34.4062 1094.34 30.4219 1089.38 27.4219C1084.5 24.4219 1078.41 22.9219 1071.09 22.9219C1064.62 22.9219 1059.05 24.0469 1054.36 26.2969C1049.77 28.4531 1045.83 31.4062 1042.55 35.1562C1039.36 38.8125 1036.78 43.0781 1034.81 47.9531C1032.94 52.8281 1031.44 57.9844 1030.31 63.4219C1029.28 68.7656 1028.58 74.2031 1028.2 79.7344C1027.92 85.1719 1027.78 90.3281 1027.78 95.2031V134.438H1088.39V157.641H1027.78V206.859H971.953V103.922C971.953 89.2031 974.297 75.5156 978.984 62.8594C983.672 50.2031 990.281 39.2344 998.812 29.9531C1007.44 20.5781 1017.75 13.2656 1029.75 8.01562C1041.84 2.67188 1055.3 0 1070.11 0C1080.14 0 1089.52 1.45312 1098.23 4.35938C1107.05 7.17188 1115.06 11.1094 1122.28 16.1719C1129.5 21.1406 1135.92 27.0938 1141.55 34.0312C1147.27 40.875 1152 48.375 1155.75 56.5312C1159.59 64.6875 1162.5 73.3125 1164.47 82.4062C1166.44 91.5 1167.33 100.688 1167.14 109.969Z" fill="black"/>
<path d="M1259.39 206.859H1203.56V4.35938H1303.12C1312.5 4.35938 1321.55 5.48438 1330.27 7.73438C1338.98 9.89062 1346.67 13.3594 1353.33 18.1406C1360.08 22.8281 1365.42 28.9219 1369.36 36.4219C1373.39 43.9219 1375.41 53.0156 1375.41 63.7031C1375.41 72.0469 1373.62 79.9219 1370.06 87.3281C1366.59 94.6406 1361.91 101.203 1356 107.016C1350.19 112.734 1343.48 117.516 1335.89 121.359C1328.3 125.109 1320.42 127.594 1312.27 128.812C1315.92 135 1319.72 140.859 1323.66 146.391C1327.69 151.922 1331.72 157.125 1335.75 162C1339.88 166.781 1343.95 171.234 1347.98 175.359C1352.02 179.391 1355.86 183.094 1359.52 186.469C1368.14 194.344 1376.67 201.141 1385.11 206.859H1315.5C1309.88 201.516 1304.53 195.094 1299.47 187.594C1295.16 181.219 1290.8 173.344 1286.39 163.969C1282.08 154.5 1278.75 143.578 1276.41 131.203H1259.39V206.859ZM1318.73 63.7031C1318.73 50.1094 1315.41 40.125 1308.75 33.75C1302.19 27.375 1292.3 24.1875 1279.08 24.1875H1259.39V112.078H1279.08C1286.11 112.078 1292.11 110.766 1297.08 108.141C1302.14 105.422 1306.27 101.859 1309.45 97.4531C1312.64 92.9531 1314.98 87.7969 1316.48 81.9844C1317.98 76.1719 1318.73 70.0781 1318.73 63.7031Z" fill="black"/>
<mask id="path-2-inside-1" fill="white">
<path d="M247.683 228.498C191.989 251.014 175.508 246.613 158.198 241.252C155.227 232.699 138.382 227.609 117.841 228.905C117.969 227.917 117.984 226.873 117.852 225.798C117.844 225.734 117.831 225.673 117.822 225.608C119.29 223.719 120.041 221.272 119.726 218.71C119.095 213.57 114.414 209.912 109.27 210.544C104.133 211.175 100.478 215.856 101.109 220.995C101.424 223.555 102.741 225.745 104.618 227.224C104.625 227.29 104.626 227.355 104.634 227.422C104.766 228.497 105.034 229.506 105.398 230.433C83.8285 234.388 68.0757 244.365 69.2526 253.95C69.2985 254.324 69.3762 254.691 69.4718 255.053C69.4546 255.046 69.4362 255.041 69.419 255.034C69.419 255.034 67.7386 257.286 65.792 259.931C64.5444 261.402 63.4032 262.92 62.3681 264.476C56.6366 257.37 52.829 248.422 44.3672 242.904C12.8538 223.354 -13.8671 274.301 23.0318 286.28C28.2815 288.031 35.6571 290.86 42.1368 294.493C38.8147 296.703 36.7824 300.578 37.0806 304.78C37.0698 306.017 37.3864 307.271 37.9634 308.462C39.9075 313.007 44.6715 315.923 49.8224 315.291C50.2393 315.24 50.6464 315.163 51.0459 315.07C54.8994 314.279 58.8178 311.278 61.7436 304.827C69.6001 316.426 84.3773 324.572 101.999 326.998C98.9237 329.082 96.4165 331.478 94.6585 334.063C87.8237 338.005 83.897 342.728 84.463 347.338C85.6133 356.706 104.896 362.047 127.531 359.268C150.174 356.488 167.591 346.641 166.441 337.272C165.875 332.663 160.915 329.03 153.333 326.859C151.529 325.245 149.307 323.855 146.781 322.713C206.317 306.854 211.164 264.165 272.849 234.812C277.398 231.445 261.551 223.61 247.683 228.498ZM55.698 283.958C43.947 276.712 23.489 274.408 21.7258 263.263C20.3018 253.704 33.8849 250.214 41.5183 254.161C49.0704 257.617 53.7157 264.394 59.6146 269.217C57.2789 273.912 55.9182 278.879 55.698 283.958Z"/>
</mask>
<path d="M247.683 228.498C191.989 251.014 175.508 246.613 158.198 241.252C155.227 232.699 138.382 227.609 117.841 228.905C117.969 227.917 117.984 226.873 117.852 225.798C117.844 225.734 117.831 225.673 117.822 225.608C119.29 223.719 120.041 221.272 119.726 218.71C119.095 213.57 114.414 209.912 109.27 210.544C104.133 211.175 100.478 215.856 101.109 220.995C101.424 223.555 102.741 225.745 104.618 227.224C104.625 227.29 104.626 227.355 104.634 227.422C104.766 228.497 105.034 229.506 105.398 230.433C83.8285 234.388 68.0757 244.365 69.2526 253.95C69.2985 254.324 69.3762 254.691 69.4718 255.053C69.4546 255.046 69.4362 255.041 69.419 255.034C69.419 255.034 67.7386 257.286 65.792 259.931C64.5444 261.402 63.4032 262.92 62.3681 264.476C56.6366 257.37 52.829 248.422 44.3672 242.904C12.8538 223.354 -13.8671 274.301 23.0318 286.28C28.2815 288.031 35.6571 290.86 42.1368 294.493C38.8147 296.703 36.7824 300.578 37.0806 304.78C37.0698 306.017 37.3864 307.271 37.9634 308.462C39.9075 313.007 44.6715 315.923 49.8224 315.291C50.2393 315.24 50.6464 315.163 51.0459 315.07C54.8994 314.279 58.8178 311.278 61.7436 304.827C69.6001 316.426 84.3773 324.572 101.999 326.998C98.9237 329.082 96.4165 331.478 94.6585 334.063C87.8237 338.005 83.897 342.728 84.463 347.338C85.6133 356.706 104.896 362.047 127.531 359.268C150.174 356.488 167.591 346.641 166.441 337.272C165.875 332.663 160.915 329.03 153.333 326.859C151.529 325.245 149.307 323.855 146.781 322.713C206.317 306.854 211.164 264.165 272.849 234.812C277.398 231.445 261.551 223.61 247.683 228.498ZM55.698 283.958C43.947 276.712 23.489 274.408 21.7258 263.263C20.3018 253.704 33.8849 250.214 41.5183 254.161C49.0704 257.617 53.7157 264.394 59.6146 269.217C57.2789 273.912 55.9182 278.879 55.698 283.958Z" fill="#DAA520"/>
<path d="M247.683 228.498L246.021 223.782L245.914 223.82L245.809 223.862L247.683 228.498ZM158.198 241.252L153.474 242.893L154.304 245.281L156.718 246.028L158.198 241.252ZM117.841 228.905L112.883 228.261L112.101 234.277L118.156 233.895L117.841 228.905ZM117.822 225.608L113.874 222.54L112.589 224.194L112.866 226.269L117.822 225.608ZM104.618 227.224L109.586 226.666L109.353 224.59L107.713 223.297L104.618 227.224ZM105.398 230.433L106.299 235.351L112.267 234.257L110.053 228.609L105.398 230.433ZM69.4718 255.053L67.6439 259.707L76.8189 263.311L74.3067 253.779L69.4718 255.053ZM69.419 255.034L71.2469 250.38L67.694 248.984L65.4114 252.044L69.419 255.034ZM65.792 259.931L69.6054 263.165L69.7167 263.033L69.8186 262.895L65.792 259.931ZM62.3681 264.476L58.4764 267.615L62.7558 272.921L66.5312 267.245L62.3681 264.476ZM44.3672 242.904L47.0983 238.716L47.051 238.685L47.0031 238.655L44.3672 242.904ZM23.0318 286.28L24.6141 281.537L24.595 281.53L24.5758 281.524L23.0318 286.28ZM42.1368 294.493L44.9059 298.656L51.7113 294.13L44.5823 290.132L42.1368 294.493ZM37.0806 304.78L42.0804 304.824L42.0821 304.625L42.0681 304.426L37.0806 304.78ZM37.9634 308.462L42.5604 306.496L42.5144 306.388L42.4634 306.283L37.9634 308.462ZM51.0459 315.07L50.0406 310.172L49.9746 310.186L49.909 310.201L51.0459 315.07ZM61.7436 304.827L65.8834 302.023L60.8772 294.632L57.1901 302.762L61.7436 304.827ZM101.999 326.998L104.804 331.137L115.595 323.823L102.681 322.045L101.999 326.998ZM94.6585 334.063L97.1566 338.394L98.149 337.822L98.7931 336.874L94.6585 334.063ZM153.333 326.859L149.999 330.585L150.854 331.35L151.956 331.665L153.333 326.859ZM146.781 322.713L145.494 317.881L131.946 321.49L144.721 327.268L146.781 322.713ZM272.849 234.812L274.998 239.327L275.435 239.119L275.824 238.831L272.849 234.812ZM55.698 283.958L53.0737 288.214L60.3244 292.684L60.6933 284.174L55.698 283.958ZM21.7258 263.263L16.7804 263.999L16.7837 264.022L16.7872 264.044L21.7258 263.263ZM41.5183 254.161L39.2218 258.602L39.3285 258.657L39.4376 258.707L41.5183 254.161ZM59.6146 269.217L64.0913 271.444L65.8685 267.871L62.7794 265.346L59.6146 269.217ZM245.809 223.862C218.164 235.039 200.664 239.358 188.154 240.344C175.861 241.313 168.14 239.097 159.677 236.476L156.718 246.028C165.566 248.768 174.741 251.433 188.939 250.313C202.921 249.211 221.508 244.473 249.557 233.133L245.809 223.862ZM162.921 239.612C160.608 232.952 153.565 228.888 146.066 226.602C138.209 224.207 128.239 223.239 117.526 223.915L118.156 233.895C127.984 233.275 136.706 234.204 143.15 236.168C149.952 238.241 152.817 240.999 153.474 242.893L162.921 239.612ZM122.799 229.549C122.979 228.163 123 226.697 122.815 225.189L112.889 226.407C112.968 227.048 112.959 227.67 112.883 228.261L122.799 229.549ZM122.815 225.189C122.803 225.096 122.792 225.017 122.783 224.961C122.774 224.907 122.766 224.86 122.763 224.844C122.758 224.818 122.76 224.829 122.762 224.841C122.765 224.857 122.771 224.895 122.778 224.947L112.866 226.269C112.877 226.354 112.888 226.424 112.896 226.472C112.9 226.496 112.904 226.517 112.906 226.531C112.909 226.544 112.911 226.559 112.912 226.562C112.914 226.577 112.912 226.562 112.908 226.54C112.904 226.515 112.897 226.468 112.889 226.407L122.815 225.189ZM121.77 228.677C124.016 225.786 125.171 222.028 124.689 218.1L114.763 219.319C114.91 220.517 114.565 221.651 113.874 222.54L121.77 228.677ZM124.689 218.1C123.721 210.219 116.545 204.613 108.661 205.581L109.879 215.507C112.284 215.212 114.469 216.921 114.763 219.319L124.689 218.1ZM108.661 205.581C100.779 206.549 95.1794 213.728 96.1466 221.605L106.072 220.386C105.777 217.984 107.486 215.801 109.879 215.507L108.661 205.581ZM96.1466 221.605C96.6283 225.528 98.6545 228.891 101.523 231.151L107.713 223.297C106.828 222.6 106.219 221.582 106.072 220.386L96.1466 221.605ZM99.649 227.783C99.6425 227.725 99.6389 227.681 99.6375 227.663C99.6364 227.649 99.6356 227.636 99.6374 227.664C99.6386 227.681 99.642 227.73 99.6467 227.788C99.6518 227.848 99.6596 227.932 99.6717 228.031L109.597 226.812C109.605 226.878 109.61 226.929 109.612 226.956C109.614 226.981 109.615 226.998 109.614 226.982C109.614 226.978 109.613 226.962 109.612 226.948C109.611 226.933 109.609 226.91 109.607 226.884C109.603 226.833 109.597 226.757 109.586 226.666L99.649 227.783ZM99.6717 228.031C99.8573 229.543 100.233 230.959 100.742 232.258L110.053 228.609C109.835 228.052 109.676 227.451 109.597 226.812L99.6717 228.031ZM104.496 225.515C93.259 227.576 83.2649 231.245 76.0841 235.879C69.2978 240.259 63.3243 246.695 64.2899 254.559L74.2153 253.341C74.004 251.619 75.3184 248.275 81.5066 244.281C87.3002 240.542 95.9671 237.246 106.299 235.351L104.496 225.515ZM64.2899 254.559C64.3704 255.215 64.5007 255.811 64.6369 256.328L74.3067 253.779C74.2517 253.571 74.2266 253.433 74.2153 253.341L64.2899 254.559ZM71.2996 250.399C71.2446 250.378 71.199 250.361 71.1706 250.35C71.156 250.345 71.1437 250.341 71.1355 250.338C71.1277 250.335 71.1208 250.333 71.1193 250.332C71.1163 250.331 71.1188 250.332 71.1221 250.333C71.1259 250.334 71.1338 250.337 71.144 250.341C71.1636 250.348 71.2004 250.362 71.2469 250.38L67.5912 259.688C67.6462 259.709 67.6918 259.726 67.7202 259.737C67.7348 259.742 67.7471 259.746 67.7553 259.749C67.7631 259.752 67.77 259.754 67.7715 259.755C67.7745 259.756 67.772 259.755 67.7687 259.754C67.7649 259.753 67.757 259.75 67.7468 259.746C67.7272 259.739 67.6904 259.725 67.6439 259.707L71.2996 250.399ZM69.419 255.034C65.4114 252.044 65.4114 252.044 65.4114 252.044C65.4114 252.044 65.4113 252.044 65.4113 252.044C65.4112 252.044 65.4111 252.044 65.411 252.045C65.4108 252.045 65.4105 252.045 65.41 252.046C65.4092 252.047 65.4079 252.049 65.4062 252.051C65.4028 252.056 65.3979 252.062 65.3914 252.071C65.3783 252.088 65.3591 252.114 65.3339 252.148C65.2837 252.215 65.2099 252.314 65.1153 252.441C64.9262 252.695 64.654 253.061 64.3209 253.51C63.6547 254.408 62.7438 255.637 61.7654 256.967L69.8186 262.895C70.7869 261.58 71.6894 260.361 72.3502 259.471C72.6804 259.026 72.95 258.664 73.1368 258.413C73.2302 258.287 73.3029 258.19 73.3521 258.124C73.3767 258.091 73.3955 258.065 73.408 258.049C73.4143 258.04 73.419 258.034 73.4221 258.03C73.4237 258.028 73.4248 258.026 73.4256 258.025C73.426 258.025 73.4262 258.024 73.4264 258.024C73.4265 258.024 73.4266 258.024 73.4266 258.024C73.4266 258.024 73.4266 258.024 73.4266 258.024C73.4266 258.024 73.4266 258.024 69.419 255.034ZM61.9786 256.697C60.6063 258.315 59.3483 259.988 58.2051 261.707L66.5312 267.245C67.4582 265.852 68.4825 264.489 69.6054 263.165L61.9786 256.697ZM66.2599 261.337C63.4598 257.865 61.5682 254.538 58.4597 250.188C55.5844 246.164 52.0882 241.969 47.0983 238.716L41.6361 247.092C45.108 249.356 47.7465 252.395 50.3233 256.001C52.667 259.281 55.5449 263.981 58.4764 267.615L66.2599 261.337ZM47.0031 238.655C37.925 233.023 28.7802 232.286 20.906 235.027C13.1797 237.717 7.10378 243.601 3.58981 250.498C0.0774907 257.392 -1.07424 265.705 1.65681 273.376C4.44424 281.206 11.0153 287.635 21.4879 291.035L24.5758 281.524C16.599 278.934 12.673 274.504 11.0776 270.022C9.42577 265.383 10.0053 259.935 12.5 255.038C14.9931 250.145 19.2 246.21 24.1939 244.471C29.0399 242.784 35.0527 243.009 41.7313 247.153L47.0031 238.655ZM21.4496 291.023C26.5518 292.725 33.5978 295.437 39.6913 298.854L44.5823 290.132C37.7164 286.282 30.0112 283.337 24.6141 281.537L21.4496 291.023ZM39.3676 290.33C34.5958 293.504 31.6635 299.079 32.0931 305.134L42.0681 304.426C41.9014 302.077 43.0335 299.902 44.9059 298.656L39.3676 290.33ZM32.0808 304.737C32.0622 306.856 32.6042 308.868 33.4634 310.641L42.4634 306.283C42.1685 305.674 42.0773 305.177 42.0804 304.824L32.0808 304.737ZM33.3663 310.428C36.1591 316.957 43.0056 321.166 50.4317 320.254L49.213 310.328C46.3374 310.681 43.6559 309.056 42.5604 306.496L33.3663 310.428ZM50.4317 320.254C51.0559 320.177 51.6411 320.066 52.1827 319.939L49.909 310.201C49.6516 310.261 49.4228 310.303 49.213 310.328L50.4317 320.254ZM52.0512 319.968C57.9022 318.767 62.915 314.35 66.2972 306.892L57.1901 302.762C54.7206 308.207 51.8967 309.791 50.0406 310.172L52.0512 319.968ZM57.6039 307.631C66.4584 320.704 82.6926 329.387 101.317 331.951L102.681 322.045C86.0619 319.757 72.7418 312.149 65.8834 302.023L57.6039 307.631ZM99.1933 322.859C95.7093 325.221 92.707 328.041 90.5239 331.251L98.7931 336.874C100.126 334.915 102.138 332.944 104.804 331.137L99.1933 322.859ZM92.1604 329.732C88.4046 331.898 85.1405 334.447 82.8518 337.364C80.5464 340.302 79.0071 343.931 79.5003 347.947L89.4257 346.728C89.3529 346.135 89.494 345.098 90.7191 343.537C91.9609 341.954 94.0776 340.17 97.1566 338.394L92.1604 329.732ZM79.5003 347.947C80.0016 352.03 82.4435 355.214 85.4593 357.518C88.4567 359.808 92.3337 361.494 96.6056 362.677C105.173 365.05 116.335 365.68 128.14 364.231L126.922 354.306C116.092 355.635 106.295 354.984 99.2751 353.04C95.7531 352.064 93.179 350.831 91.53 349.572C89.8994 348.326 89.4995 347.329 89.4257 346.728L79.5003 347.947ZM128.14 364.231C139.95 362.781 150.63 359.469 158.369 355.093C162.228 352.912 165.583 350.338 167.937 347.391C170.306 344.426 171.905 340.746 171.404 336.663L161.478 337.881C161.552 338.483 161.405 339.546 160.124 341.149C158.829 342.771 156.63 344.589 153.448 346.388C147.106 349.974 137.756 352.975 126.922 354.306L128.14 364.231ZM171.404 336.663C170.91 332.644 168.535 329.495 165.587 327.204C162.66 324.928 158.876 323.245 154.709 322.052L151.956 331.665C155.372 332.644 157.86 333.863 159.449 335.099C161.018 336.318 161.406 337.29 161.478 337.881L171.404 336.663ZM156.666 323.132C154.414 321.117 151.739 319.468 148.842 318.157L144.721 327.268C146.875 328.243 148.644 329.373 149.999 330.585L156.666 323.132ZM148.068 327.544C179.125 319.272 195.986 303.876 212.54 287.363C228.976 270.967 245.043 253.581 274.998 239.327L270.701 230.297C238.97 245.396 221.77 264.031 205.478 280.283C189.304 296.417 173.973 310.295 145.494 317.881L148.068 327.544ZM275.824 238.831C277.398 237.666 278.759 235.708 278.637 233.136C278.531 230.917 277.348 229.271 276.431 228.295C274.566 226.309 271.7 224.832 268.803 223.833C262.84 221.775 254.229 220.889 246.021 223.782L249.345 233.213C255.005 231.218 261.252 231.806 265.541 233.286C267.771 234.055 268.88 234.863 269.141 235.141C269.287 235.296 268.704 234.777 268.648 233.612C268.576 232.093 269.438 231.117 269.874 230.793L275.824 238.831ZM58.3223 279.702C54.9846 277.644 51.1552 276.009 47.5036 274.579C43.6685 273.077 40.2582 271.88 36.9126 270.467C33.6274 269.079 31.0593 267.736 29.2659 266.289C27.5416 264.897 26.853 263.674 26.6644 262.481L16.7872 264.044C17.4802 268.424 20.0101 271.669 22.9848 274.07C25.8904 276.415 29.5018 278.192 33.0204 279.678C36.4786 281.139 40.4962 282.574 43.8571 283.89C47.4014 285.278 50.5359 286.649 53.0737 288.214L58.3223 279.702ZM26.6712 262.526C26.5102 261.445 26.7606 260.771 27.1619 260.229C27.6403 259.583 28.5501 258.869 29.9906 258.325C33.0081 257.187 36.8185 257.359 39.2218 258.602L43.8148 249.719C38.5847 247.015 31.7869 246.959 26.4605 248.969C23.729 250 21.033 251.703 19.1265 254.277C17.1429 256.954 16.2294 260.301 16.7804 263.999L26.6712 262.526ZM39.4376 258.707C42.4494 260.085 45.0172 262.185 47.7236 264.783C50.2197 267.179 53.3089 270.52 56.4499 273.088L62.7794 265.346C60.0215 263.091 57.8385 260.631 54.6491 257.569C51.6701 254.709 48.1393 251.692 43.599 249.614L39.4376 258.707ZM55.138 266.99C52.519 272.254 50.9558 277.902 50.7027 283.741L60.6933 284.174C60.8805 279.856 62.0387 275.57 64.0913 271.444L55.138 266.99Z" fill="black" mask="url(#path-2-inside-1)"/>
<path d="M73.1689 257.796C87.4647 271.657 128.412 264.614 154.941 242.718" stroke="black" stroke-width="5"/>
</svg>
